<svg id="Capa_1" enable-background="new 0 0 512.051 512.051" height="512" viewBox="0 0 512.051 512.051" width="512" xmlns="http://www.w3.org/2000/svg"><g><g id="_x3C_Group_x3E__29_"><path d="m322.219 122.551-41.129 10-41.849-10-1.532-107.33 7.881-7.67h81c2.761 0 5 2.239 5 5v95z" fill="#fdcb9e"/><path d="m245.589 102.551v-95h-10c-2.761 0-5 2.239-5 5v110l50.534 10 50.466-10v-15h-81c-2.761 0-5-2.238-5-5z" fill="#fdcb9e"/><path d="m281.112 500.838s-8.698-2.728-9.586-11.209l-17.168-163.909c-2.763-26.381-2.895-52.971-.395-79.378l3.626-38.291 26.161-10 27.839 10 3.643 37.934c2.559 26.643 2.437 53.476-.364 80.095l-17.21 163.557c-.501 4.764-2.979 8.884-6.565 11.579-2.796 2.1-6.246-.378-9.981-.378z" fill="#32e0c4"/><path d="m284.526 489.629-17.168-163.909c-2.763-26.381-2.895-52.971-.395-79.378l3.626-38.291-10.328-10-9.672 10-3.626 38.291c-2.5 26.407-2.368 52.997.395 79.378l17.168 163.909c.888 8.481 8.039 14.922 16.566 14.922 3.734 0 7.204-1.235 10-3.336-3.588-2.696-6.066-6.818-6.566-11.586z" fill="#7a635e"/><path d="m423.836 10.541s-10.417 15.003-12.255 22.128l-6.809 25.872c-4.582 17.756-3.874 31.132.851 48.851l4.085 8.34 33.191-1.219s8.957-5.445 9.291-6.959c3.603-16.347 3.31-33.337-.884-49.588l-9.887-38.312c-1.431-5.544-5.639-9.788-10.902-11.399-1.5-.459-5.048 2.286-6.681 2.286z" fill="#fcf7ed"/><path d="m416.747 104.458c-2.561-6.126-6.882-21.671-1.461-49.491l9.887-38.312c.873-3.384 2.789-6.274 5.341-8.386-2.613-.8-5.47-.989-8.416-.271-5.969 1.455-10.538 6.282-12.073 12.231l-9.739 37.738c-4.582 17.756-4.507 36.393.218 54.112l2.793 10.472 22.5 10 22.5-10 2.792-10.472c.401-1.502.755-3.013 1.089-4.528h-30.807c-2.027 0-3.842-1.223-4.624-3.093z" fill="#fbf0dc"/><path d="m302.049 196.753-43.66.255-16.085-38.553.255-23.234 9.03-12.67h80v31.834c0 .606-.11 1.206-.325 1.773l-12.092 31.893z" fill="#e3e0e4"/><path d="m425.797 502.551c-8.462 0-12.497-4.519-13.14-12.957l-12.653-166.077c-1.899-24.923-1.457-49.968 1.318-74.808l4.543-40.658 21.076-10 21.785 10 4.543 40.655c2.776 24.842 3.218 49.89 1.319 74.815l-12.653 166.074c-.357 4.686-2.686 8.781-6.135 11.495-2.761 2.173-10.003 1.461-10.003 1.461z" fill="#8e746e"/><path d="m429.657 489.594-12.653-166.077c-1.899-24.923-1.458-49.968 1.318-74.808l4.543-40.658-9.754-10-10.246 10-4.543 40.658c-2.776 24.84-3.217 49.886-1.318 74.808l12.653 166.077c.643 8.438 7.677 14.957 16.14 14.957 3.762 0 7.238-1.294 10-3.467-3.45-2.714-5.783-6.803-6.14-11.49z" fill="#7a635e"/><path d="m147.24 107.551h-37.106l-44.596-74.553 3.731-10.101 14.971-6.111 8.157-.289c3.597-1.468 2.255-3.733 5.955-4.795 16.665-4.78 34.208-5.432 51.113-1.958 2.548.524 4.081 4.141 6.595 4.852 2.242.634 5.469-1.657 7.676-.873 1.561.554 3.111 1.145 4.651 1.774l27.96 11.412c2.849 1.163 3.993 4.591 2.414 7.232l-39.119 65.41z" fill="#fcf7ed"/><path d="m425.797 201.009-14.216-13.447 11.716-65.011h25.026l.31 65.5z" fill="#e3e0e4"/><path d="m140.432 198.966-23.66-.34v-84.075l11.12-10 22.665 10v73.5z" fill="#e3e0e4"/><path d="m125.227 183.051v-68.5l-10.307-10-9.693 10v93.5l22.647 17.298 22.683-17.298v-20h-20.33c-2.761 0-5-2.238-5-5z" fill="#d4cfd5"/><path d="m113.657 97.118-44.388-74.221-9.832 4.013c-2.849 1.163-3.993 4.591-2.414 7.232l48.09 80.409h45.559l8.971-15h-41.695c-1.758 0-3.388-.924-4.291-2.433z" fill="#fbf0dc"/><path d="m129.015 499.295c-8.459 0-7.694-26.872-8.328-35.307l-11.915-142.638c-1.869-24.862-1.409-49.844 1.373-74.62l1.35-26.146 13.732-12.532h25.33l4.569 40.93c2.753 24.66 3.205 49.523 1.351 74.266l-12.464 166.344c-.351 4.684-2.674 8.778-6.118 11.493-2.76 2.175-8.88-1.79-8.88-1.79z" fill="#8e746e"/><path d="m131.768 489.595-12.49-166.169c-1.869-24.862-1.409-49.844 1.373-74.62l4.576-40.754h-20l-4.576 40.754c-2.782 24.776-3.242 49.758-1.373 74.62l12.49 166.169c.634 8.435 7.663 14.956 16.122 14.956 3.764 0 7.24-1.296 10-3.472-3.443-2.715-5.77-6.802-6.122-11.484z" fill="#7a635e"/><g fill="#d4cfd5"><path d="m262.783 184.824-10.869-28.666c-.215-.566-.325-1.167-.325-1.773v-31.834h-21v31.834c0 .606.11 1.207.325 1.773l19.675 51.893h61l7.583-20h-51.714c-2.078 0-3.939-1.285-4.675-3.227z"/><path d="m448.633 188.051h-20.641c-2.771 0-5.014-2.254-5-5.025l.305-60.475h-20l-.431 85.5h15 5 25.862z"/></g></g><g><path d="m326.589.051h-91c-6.893 0-12.5 5.607-12.5 12.5v141.834c0 1.52.273 3.011.813 4.431l19.056 50.263-3.462 36.558c-.638 6.747-1.113 13.594-1.413 20.351-.185 4.138 3.021 7.642 7.159 7.825 4.186.175 7.643-3.022 7.825-7.16.289-6.509.747-13.104 1.362-19.603l2.982-31.499h47.362l2.992 31.151c2.505 26.087 2.385 52.53-.357 78.594l-17.21 163.557c-.491 4.674-4.406 8.199-9.106 8.199-4.702 0-8.617-3.527-9.107-8.203l-17.168-163.909c-.831-7.932-1.426-15.989-1.77-23.948-.179-4.139-3.688-7.338-7.816-7.17-4.139.179-7.349 3.678-7.17 7.816.356 8.263.975 16.628 1.838 24.864l17.168 163.909c1.292 12.337 11.621 21.64 24.025 21.64 12.399 0 22.728-9.299 24.024-21.629l17.21-163.557c2.847-27.06 2.972-54.513.371-81.597l-3.476-36.194 19.055-50.257c.538-1.42.812-2.911.812-4.432v-141.834c.001-6.892-5.607-12.5-12.499-12.5zm-88.5 15h86v100h-17.819v-22.5c0-4.142-3.357-7.5-7.5-7.5s-7.5 3.358-7.5 7.5v22.5h-20.806v-74.553c0-4.142-3.357-7.5-7.5-7.5s-7.5 3.358-7.5 7.5v74.553h-17.376v-100zm68.323 185.5h-50.646l-17.677-46.625v-23.875h86v23.877z"/><path d="m299.281 148.402h-36.316c-4.143 0-7.5 3.358-7.5 7.5s3.357 7.5 7.5 7.5h36.316c4.143 0 7.5-3.358 7.5-7.5s-3.357-7.5-7.5-7.5z"/><path d="m460.725 247.873-4.499-40.261-.398-84.191 2.509-9.409c3.991-14.973 4.896-30.341 2.687-45.678-.592-4.101-4.409-6.945-8.493-6.354-4.1.59-6.944 4.393-6.354 8.493 1.919 13.321 1.135 26.67-2.333 39.675l-1.308 4.905h-9.238v-22.5c0-4.142-3.357-7.5-7.5-7.5s-7.5 3.358-7.5 7.5v22.5h-9.238l-1.308-4.904c-4.384-16.438-4.453-33.834-.203-50.307l9.887-38.312c.984-3.814 4.423-6.478 8.362-6.478 3.938 0 7.377 2.664 8.361 6.478l4.127 15.99c1.035 4.01 5.126 6.422 9.136 5.388 4.011-1.035 6.423-5.126 5.388-9.137l-4.127-15.989c-2.693-10.439-12.104-17.729-22.885-17.729s-20.192 7.291-22.886 17.729l-9.887 38.312c-4.895 18.965-4.813 38.993.232 57.919l2.535 9.505-.424 84.094-4.499 40.265c-2.821 25.244-3.272 50.884-1.344 76.211l6.937 91.035c.315 4.13 3.92 7.229 8.049 6.909 4.13-.315 7.223-3.918 6.908-8.048l-6.937-91.035c-1.858-24.394-1.423-49.091 1.293-73.405l3.8-33.991h32.444l3.799 33.987c2.717 24.321 3.152 49.021 1.293 73.412l-12.653 166.074c-.343 4.501-4.147 8.027-8.661 8.027s-8.318-3.525-8.661-8.026l-3.079-40.411c-.314-4.13-3.924-7.218-8.048-6.909-4.131.315-7.224 3.918-6.909 8.048l3.079 40.41c.935 12.273 11.309 21.887 23.618 21.887 12.308 0 22.682-9.614 23.618-21.887l12.653-166.074c1.93-25.325 1.478-50.968-1.343-76.218zm-49.966-117.822h30.099l.333 70.5h-30.788z"/><path d="m199.182 19.966-27.96-11.412c-27.939-11.405-58.718-11.405-86.659 0l-27.961 11.412c-3.385 1.382-5.99 4.164-7.147 7.632-1.156 3.468-.744 7.257 1.133 10.393l15.261 25.517c2.125 3.555 6.731 4.714 10.286 2.587 3.555-2.126 4.713-6.731 2.587-10.286l-13.784-23.044 21.873-8.928 19.048 52.234c1.67 2.69 4.201 6.142 9.615 4.477 3.892-1.419 5.896-5.724 4.477-9.615l-19.024-52.168c15.219-4.304 31.09-4.906 46.491-1.802l-6.069 21.383c-1.131 3.985 1.183 8.132 5.167 9.263 3.03.865 7.63-.556 9.263-5.167l6.079-21.418c1.233.337 27.438 11.134 28.988 11.741l-44.428 74.287h-37.051l-12.824-21.442c-2.126-3.555-6.729-4.713-10.286-2.587-3.555 2.126-4.713 6.731-2.587 10.286l14.058 23.505v90.818l-4.529 40.336c-2.827 25.178-3.298 50.754-1.399 76.02l12.491 166.169c.922 12.277 11.289 21.894 23.601 21.894 12.313 0 22.681-9.619 23.603-21.899l12.463-166.344c1.885-25.145 1.422-50.6-1.375-75.659l-4.523-40.519v-90.817l47.141-78.822c1.877-3.138 2.289-6.926 1.132-10.394-1.16-3.468-3.766-6.249-7.151-7.631zm-86.455 180.585v-78.5h30.33v78.5zm36.271 122.136-12.463 166.343c-.338 4.498-4.135 8.021-8.645 8.021-4.509 0-8.306-3.522-8.644-8.018l-12.491-166.169c-1.828-24.335-1.375-48.971 1.349-73.222l3.828-34.091h31.916l3.824 34.262c2.696 24.137 3.141 48.655 1.326 72.874z"/></g></g></svg>