<svg width="179" height="158" viewBox="0 0 179 158" fill="none" xmlns="http://www.w3.org/2000/svg">
<path d="M0.6 100.6C0.6 89.1333 2.93333 79.1333 7.6 70.6C12.2667 61.9333 18.7333 55.2667 27 50.6C35.2667 45.8 44.7333 43.4 55.4 43.4C69.1333 43.4 80.4667 46.8667 89.4 53.8C98.4667 60.6 104.533 70.2 107.6 82.6H77.4C75.8 77.8 73.0667 74.0667 69.2 71.4C65.4667 68.6 60.8 67.2 55.2 67.2C47.2 67.2 40.8667 70.1333 36.2 76C31.5333 81.7333 29.2 89.9333 29.2 100.6C29.2 111.133 31.5333 119.333 36.2 125.2C40.8667 130.933 47.2 133.8 55.2 133.8C66.5333 133.8 73.9333 128.733 77.4 118.6H107.6C104.533 130.6 98.4667 140.133 89.4 147.2C80.3333 154.267 69 157.8 55.4 157.8C44.7333 157.8 35.2667 155.467 27 150.8C18.7333 146 12.2667 139.333 7.6 130.8C2.93333 122.133 0.6 112.067 0.6 100.6Z" fill="#FDCB9E"/>
<path d="M178.913 68.2H159.513V156H131.113V68.2H118.513V45.2H131.113V39.6C131.113 26 134.979 16 142.713 9.59999C150.446 3.19999 162.113 0.199995 177.713 0.599998V24.2C170.913 24.0667 166.179 25.2 163.513 27.6C160.846 30 159.513 34.3333 159.513 40.6V45.2H178.913V68.2Z" fill="#32E0C4"/>
</svg>
