<svg id="Capa_1" enable-background="new 0 0 509.979 509.979" height="512" viewBox="0 0 509.979 509.979" width="512" xmlns="http://www.w3.org/2000/svg" fill="#fdcb9e"><g><path d="m98.036 337h35.054v120h-35.054z" transform="matrix(.707 -.707 .707 .707 -246.874 197.995)" fill="#32e0c4"/><path d="m15.743 411.967c-17.546 17.545-17.545 46.094 0 63.64l21.213 21.213c17.546 17.545 46.094 17.545 63.64 0l23.787-23.787-84.853-84.853z" fill="#32e0c4"/><path d="m465.495 119.592 36.263-108.786-108.787 36.261c6.627 36.958 35.537 65.893 72.524 72.525z"/><path d="m353.4 286.664h89.999v218.344h-89.999z" transform="matrix(.707 -.707 .707 .707 -163.21 397.65)"/><path d="m365.611 62.099-258.868 258.868 84.853 84.853 258.868-258.868c-41.377-11.007-73.831-43.42-84.853-84.853z" fill="#32e0c4"/><path d="m138.318 165.756h90v29.996h-90z" transform="matrix(.707 -.707 .707 .707 -74.12 182.566)" fill="#32e0c4"/><path d="m189.928 110.507-34.008-110.507h-11.078c-82.483 0-142.28 60.258-142.279 142.278v11.079l110.508 34.007z" fill="#fdcb9e"/></g></svg>